<?xml version="1.0" encoding="UTF-8" standalone="no"?>
<!-- Created with Inkscape (http://www.inkscape.org/) -->

<svg
        xmlns:dc="http://purl.org/dc/elements/1.1/"
        xmlns:cc="http://creativecommons.org/ns#"
        xmlns:rdf="http://www.w3.org/1999/02/22-rdf-syntax-ns#"
        xmlns:svg="http://www.w3.org/2000/svg"
        xmlns:sodipodi="http://sodipodi.sourceforge.net/DTD/sodipodi-0.dtd"
        xmlns:inkscape="http://www.inkscape.org/namespaces/inkscape"
        xmlns="http://www.w3.org/2000/svg"
        id="svg3422"
        version="1.1"
        inkscape:version="0.91 r13725"
        width="233.75"
        height="170"
        viewBox="0 0 233.75 170"
        sodipodi:docname="vector.svg">
    <metadata
            id="metadata3428">
        <rdf:RDF>
            <cc:Work
                    rdf:about="">
                <dc:format>image/svg+xml</dc:format>
                <dc:type
                        rdf:resource="http://purl.org/dc/dcmitype/StillImage"/>
                <dc:title></dc:title>
            </cc:Work>
        </rdf:RDF>
    </metadata>
    <defs
            id="defs3426"/>
    <sodipodi:namedview
            pagecolor="#ffffff"
            bordercolor="#666666"
            borderopacity="1"
            objecttolerance="10"
            gridtolerance="10"
            guidetolerance="10"
            inkscape:pageopacity="0"
            inkscape:pageshadow="2"
            inkscape:window-width="1855"
            inkscape:window-height="1056"
            id="namedview3424"
            showgrid="false"
            inkscape:zoom="2.7029412"
            inkscape:cx="236.59259"
            inkscape:cy="126.9732"
            inkscape:window-x="65"
            inkscape:window-y="24"
            inkscape:window-maximized="1"
            inkscape:current-layer="svg3422"/>
    <g
            id="g3432"
            transform="matrix(1.0670342,0,0,1.0049329,-11.364929,-4.1313022)">
        <path
                style="fill-opacity:1"
                d="m 128.70886,147.01935 -11.54238,-15.48064 -20.770737,-0.6369 C 84.971834,130.55151 72.25,130.1589 68.125,130.02934 64,129.89977 54.453502,129.4183 46.910562,128.95939 L 33.196124,128.125 24.102977,111.875 c -5.001231,-8.9375 -9.095358,-16.893267 -9.098062,-17.679484 -0.0027,-0.786215 18.892979,-11.41739 41.990404,-23.624832 l 41.995318,-22.195349 15.938163,0.762367 15.93816,0.762369 3.38741,-12.762536 c 1.86309,-7.019394 3.9397,-14.87191 4.6147,-17.450035 C 139.54409,17.109375 140.8359,15 141.73979,15 c 0.90387,0 4.28451,3.97183 7.51251,8.826288 l 5.86907,8.826287 8.321,-10.076287 C 168.01893,17.03433 172.55906,12.5 173.53156,12.5 c 1.77893,0 1.6437,9.936582 -0.51883,38.125 l -0.67128,8.75 26.36954,22.454376 c 14.50323,12.349908 26.21078,23.175634 26.01677,24.057164 -0.39925,1.81402 -80.75343,56.61346 -83.01414,56.61346 -0.80431,0 -6.65646,-6.96629 -13.00476,-15.48065 z m 15.53104,-16.47934 c 0.92579,-13.70325 1.48536,-25.13957 1.24349,-25.41403 -0.94429,-1.07153 -24.26371,22.99203 -23.7013,24.45763 1.05124,2.73949 20.07927,27.63709 20.43373,26.73693 0.18747,-0.47604 1.09831,-12.07728 2.02408,-25.78053 z m 49.8226,-8.01806 c 13.57812,-9.16818 24.6515,-17.00186 24.6075,-17.40818 -0.044,-0.40632 -10.59088,-9.687769 -23.4375,-20.625435 l -23.3575,-19.886664 -1.25,8.304034 c -1.22271,8.122784 -1.46004,8.51592 -10.87278,18.011665 l -9.62276,9.70763 -1.31602,21.25 c -0.72383,11.6875 -1.62418,23.98299 -2.0008,27.32331 l -0.68478,6.07331 11.62356,-8.04012 c 6.39297,-4.42208 22.73296,-15.54138 36.31108,-24.70955 z m -73.51079,0.0531 4.80909,-4.92495 -15.2835,3.93492 c -16.482005,4.2435 -17.098796,5.67059 -2.51849,5.82711 7.92611,0.0851 8.33526,-0.0673 12.9929,-4.83708 z m -17.61295,-3.45218 27.68624,-7.12714 7.59174,-6.73992 7.59174,-6.739932 -2.85776,-21.445439 c -1.57176,-11.794991 -2.87866,-21.791896 -2.90423,-22.215343 -0.0255,-0.423447 -8.78859,-1.17632 -19.47338,-1.673048 L 101.14622,52.278902 73.385609,66.943972 C 23.753872,93.162881 27.53384,90.764328 29.140062,95.019698 c 1.019451,2.700832 1.019278,5.068322 -6.46e-4,8.889482 -1.300467,4.87221 -1.108531,5.72059 2.974925,13.14953 L 36.479424,125 l 7.388541,0 c 7.101193,0 7.570717,-0.20412 12.072789,-5.2485 2.576335,-2.88668 13.862864,-15.12105 25.081175,-27.187503 L 101.41886,70.625 94.459429,70.25012 C 85.72668,69.779718 85.211191,67.329496 93.044331,63.523864 l 5.544331,-2.693644 4.455668,3.398504 c 2.45062,1.869177 4.44868,4.073002 4.44014,4.89739 -0.009,0.824387 -11.256125,13.592636 -24.994619,28.373886 -13.738492,14.78125 -24.981502,27.29688 -24.984465,27.8125 -0.003,0.51563 3.988929,0.9375 8.87087,0.9375 6.726641,0 15.581203,-1.72602 36.562504,-7.12713 z M 26.230859,99.301412 c 0.03436,-2.376176 -3.31712,-5.954659 -4.748438,-5.070056 -0.991113,0.612541 -0.796497,2.122224 0.670027,5.197558 1.921931,4.030326 4.019231,3.964766 4.078411,-0.127502 z M 168.46345,49.679911 c 1.69576,-21.286755 1.8863,-28.04997 0.75712,-26.875 -0.8299,0.863549 -6.90554,8.038839 -13.50146,15.945089 -8.45897,10.139435 -11.83632,15.11162 -11.46231,16.875 0.29164,1.375 1.54346,10.8111 2.78184,20.96911 l 2.25158,18.46911 8.4536,-8.46911 8.4536,-8.46911 2.26603,-28.445089 z m -22.43449,-6.09819 c 2.87158,-3.530052 5.22104,-6.927242 5.22104,-7.549312 0,-0.622069 -1.92765,-3.993439 -4.28368,-7.491933 l -4.28368,-6.360899 -1.44864,5.472712 c -0.79675,3.009991 -2.48951,9.269586 -3.76169,13.910211 L 135.15927,50 l 2.82433,0 c 1.88785,0 4.5555,-2.128144 8.04536,-6.418279 z"
                id="path3460"
                inkscape:connector-curvature="0"/>
        <path
                style="fill-opacity:1"
                d="m 128.70886,147.01935 -11.54238,-15.48064 -20.770737,-0.6369 C 84.971834,130.55151 72.25,130.1589 68.125,130.02934 64,129.89977 54.453502,129.4183 46.910562,128.95939 L 33.196124,128.125 24.102977,111.875 c -5.001231,-8.9375 -9.095358,-16.893267 -9.098062,-17.679484 -0.0027,-0.786215 18.892979,-11.41739 41.990404,-23.624832 l 41.995318,-22.195349 15.938163,0.762367 15.93816,0.762369 3.38741,-12.762536 c 1.86309,-7.019394 3.9397,-14.87191 4.6147,-17.450035 C 139.54409,17.109375 140.8359,15 141.73979,15 c 0.90387,0 4.28451,3.97183 7.51251,8.826288 l 5.86907,8.826287 8.321,-10.076287 C 168.01893,17.03433 172.55906,12.5 173.53156,12.5 c 1.77893,0 1.6437,9.936582 -0.51883,38.125 l -0.67128,8.75 26.36954,22.454376 c 14.50323,12.349908 26.21078,23.175634 26.01677,24.057164 -0.39925,1.81402 -80.75343,56.61346 -83.01414,56.61346 -0.80431,0 -6.65646,-6.96629 -13.00476,-15.48065 z m 15.53104,-16.47934 c 0.92579,-13.70325 1.48536,-25.13957 1.24349,-25.41403 -0.94429,-1.07153 -24.26371,22.99203 -23.7013,24.45763 1.05124,2.73949 20.07927,27.63709 20.43373,26.73693 0.18747,-0.47604 1.09831,-12.07728 2.02408,-25.78053 z m 49.8226,-8.01806 c 13.57812,-9.16818 24.6515,-17.00186 24.6075,-17.40818 -0.044,-0.40632 -10.59088,-9.687769 -23.4375,-20.625435 l -23.3575,-19.886664 -1.25,8.304034 c -1.22271,8.122784 -1.46004,8.51592 -10.87278,18.011665 l -9.62276,9.70763 -1.31602,21.25 c -0.72383,11.6875 -1.62418,23.98299 -2.0008,27.32331 l -0.68478,6.07331 11.62356,-8.04012 c 6.39297,-4.42208 22.73296,-15.54138 36.31108,-24.70955 z m -73.51079,0.0531 4.80909,-4.92495 -15.2835,3.93492 c -16.482005,4.2435 -17.098796,5.67059 -2.51849,5.82711 7.92611,0.0851 8.33526,-0.0673 12.9929,-4.83708 z m -17.61295,-3.45218 27.68624,-7.12714 7.59174,-6.73992 7.59174,-6.739932 -2.85776,-21.445439 c -1.57176,-11.794991 -2.87866,-21.791896 -2.90423,-22.215343 -0.0255,-0.423447 -8.78859,-1.17632 -19.47338,-1.673048 L 101.14622,52.278902 73.385609,66.943972 C 23.753872,93.162881 27.53384,90.764328 29.140062,95.019698 c 1.019451,2.700832 1.019278,5.068322 -6.46e-4,8.889482 -1.300467,4.87221 -1.108531,5.72059 2.974925,13.14953 L 36.479424,125 l 7.388541,0 c 7.101193,0 7.570717,-0.20412 12.072789,-5.2485 2.576335,-2.88668 13.862864,-15.12105 25.081175,-27.187503 L 101.41886,70.625 94.459429,70.25012 C 85.72668,69.779718 85.211191,67.329496 93.044331,63.523864 l 5.544331,-2.693644 4.455668,3.398504 c 2.45062,1.869177 4.44868,4.073002 4.44014,4.89739 -0.009,0.824387 -11.256125,13.592636 -24.994619,28.373886 -13.738492,14.78125 -24.981502,27.29688 -24.984465,27.8125 -0.003,0.51563 3.988929,0.9375 8.87087,0.9375 6.726641,0 15.581203,-1.72602 36.562504,-7.12713 z M 26.230859,99.301412 c 0.03436,-2.376176 -3.31712,-5.954659 -4.748438,-5.070056 -0.991113,0.612541 -0.796497,2.122224 0.670027,5.197558 1.921931,4.030326 4.019231,3.964766 4.078411,-0.127502 z M 168.46345,49.679911 c 1.69576,-21.286755 1.8863,-28.04997 0.75712,-26.875 -0.8299,0.863549 -6.90554,8.038839 -13.50146,15.945089 -8.45897,10.139435 -11.83632,15.11162 -11.46231,16.875 0.29164,1.375 1.54346,10.8111 2.78184,20.96911 l 2.25158,18.46911 8.4536,-8.46911 8.4536,-8.46911 2.26603,-28.445089 z m -22.43449,-6.09819 c 2.87158,-3.530052 5.22104,-6.927242 5.22104,-7.549312 0,-0.622069 -1.92765,-3.993439 -4.28368,-7.491933 l -4.28368,-6.360899 -1.44864,5.472712 c -0.79675,3.009991 -2.48951,9.269586 -3.76169,13.910211 L 135.15927,50 l 2.82433,0 c 1.88785,0 4.5555,-2.128144 8.04536,-6.418279 z"
                id="path3458"
                inkscape:connector-curvature="0"/>
        <path
                style="fill-opacity:1"
                d="m 128.70886,147.01935 -11.54238,-15.48064 -20.770737,-0.6369 C 84.971834,130.55151 72.25,130.1589 68.125,130.02934 64,129.89977 54.453502,129.4183 46.910562,128.95939 L 33.196124,128.125 24.102977,111.875 c -5.001231,-8.9375 -9.095358,-16.893267 -9.098062,-17.679484 -0.0027,-0.786215 18.892979,-11.41739 41.990404,-23.624832 l 41.995318,-22.195349 15.938163,0.762367 15.93816,0.762369 3.38741,-12.762536 c 1.86309,-7.019394 3.9397,-14.87191 4.6147,-17.450035 C 139.54409,17.109375 140.8359,15 141.73979,15 c 0.90387,0 4.28451,3.97183 7.51251,8.826288 l 5.86907,8.826287 8.321,-10.076287 C 168.01893,17.03433 172.55906,12.5 173.53156,12.5 c 1.77893,0 1.6437,9.936582 -0.51883,38.125 l -0.67128,8.75 26.36954,22.454376 c 14.50323,12.349908 26.21078,23.175634 26.01677,24.057164 -0.39925,1.81402 -80.75343,56.61346 -83.01414,56.61346 -0.80431,0 -6.65646,-6.96629 -13.00476,-15.48065 z m 15.53104,-16.47934 c 0.92579,-13.70325 1.48536,-25.13957 1.24349,-25.41403 -0.94429,-1.07153 -24.26371,22.99203 -23.7013,24.45763 1.05124,2.73949 20.07927,27.63709 20.43373,26.73693 0.18747,-0.47604 1.09831,-12.07728 2.02408,-25.78053 z m 49.8226,-8.01806 c 13.57812,-9.16818 24.6515,-17.00186 24.6075,-17.40818 -0.044,-0.40632 -10.59088,-9.687769 -23.4375,-20.625435 l -23.3575,-19.886664 -1.25,8.304034 c -1.22271,8.122784 -1.46004,8.51592 -10.87278,18.011665 l -9.62276,9.70763 -1.31602,21.25 c -0.72383,11.6875 -1.62418,23.98299 -2.0008,27.32331 l -0.68478,6.07331 11.62356,-8.04012 c 6.39297,-4.42208 22.73296,-15.54138 36.31108,-24.70955 z m -73.51079,0.0531 4.80909,-4.92495 -15.2835,3.93492 c -16.482005,4.2435 -17.098796,5.67059 -2.51849,5.82711 7.92611,0.0851 8.33526,-0.0673 12.9929,-4.83708 z m -17.61295,-3.45218 27.68624,-7.12714 7.59174,-6.73992 7.59174,-6.739932 -2.85776,-21.445439 c -1.57176,-11.794991 -2.87866,-21.791896 -2.90423,-22.215343 -0.0255,-0.423447 -8.78859,-1.17632 -19.47338,-1.673048 L 101.14622,52.278902 73.385609,66.943972 C 23.753872,93.162881 27.53384,90.764328 29.140062,95.019698 c 1.019451,2.700832 1.019278,5.068322 -6.46e-4,8.889482 -1.300467,4.87221 -1.108531,5.72059 2.974925,13.14953 L 36.479424,125 l 7.388541,0 c 7.101193,0 7.570717,-0.20412 12.072789,-5.2485 2.576335,-2.88668 13.862864,-15.12105 25.081175,-27.187503 L 101.41886,70.625 94.459429,70.25012 C 85.72668,69.779718 85.211191,67.329496 93.044331,63.523864 l 5.544331,-2.693644 4.455668,3.398504 c 2.45062,1.869177 4.44868,4.073002 4.44014,4.89739 -0.009,0.824387 -11.256125,13.592636 -24.994619,28.373886 -13.738492,14.78125 -24.981502,27.29688 -24.984465,27.8125 -0.003,0.51563 3.988929,0.9375 8.87087,0.9375 6.726641,0 15.581203,-1.72602 36.562504,-7.12713 z M 26.230859,99.301412 c 0.03436,-2.376176 -3.31712,-5.954659 -4.748438,-5.070056 -0.991113,0.612541 -0.796497,2.122224 0.670027,5.197558 1.921931,4.030326 4.019231,3.964766 4.078411,-0.127502 z M 168.46345,49.679911 c 1.69576,-21.286755 1.8863,-28.04997 0.75712,-26.875 -0.8299,0.863549 -6.90554,8.038839 -13.50146,15.945089 -8.45897,10.139435 -11.83632,15.11162 -11.46231,16.875 0.29164,1.375 1.54346,10.8111 2.78184,20.96911 l 2.25158,18.46911 8.4536,-8.46911 8.4536,-8.46911 2.26603,-28.445089 z m -22.43449,-6.09819 c 2.87158,-3.530052 5.22104,-6.927242 5.22104,-7.549312 0,-0.622069 -1.92765,-3.993439 -4.28368,-7.491933 l -4.28368,-6.360899 -1.44864,5.472712 c -0.79675,3.009991 -2.48951,9.269586 -3.76169,13.910211 L 135.15927,50 l 2.82433,0 c 1.88785,0 4.5555,-2.128144 8.04536,-6.418279 z"
                id="path3456"
                inkscape:connector-curvature="0"/>
        <path
                style="fill-opacity:1"
                d="m 128.70886,147.01935 -11.54238,-15.48064 -20.770737,-0.6369 C 84.971834,130.55151 72.25,130.1589 68.125,130.02934 64,129.89977 54.453502,129.4183 46.910562,128.95939 L 33.196124,128.125 24.102977,111.875 c -5.001231,-8.9375 -9.095358,-16.893267 -9.098062,-17.679484 -0.0027,-0.786215 18.892979,-11.41739 41.990404,-23.624832 l 41.995318,-22.195349 15.938163,0.762367 15.93816,0.762369 3.38741,-12.762536 c 1.86309,-7.019394 3.9397,-14.87191 4.6147,-17.450035 C 139.54409,17.109375 140.8359,15 141.73979,15 c 0.90387,0 4.28451,3.97183 7.51251,8.826288 l 5.86907,8.826287 8.321,-10.076287 C 168.01893,17.03433 172.55906,12.5 173.53156,12.5 c 1.77893,0 1.6437,9.936582 -0.51883,38.125 l -0.67128,8.75 26.36954,22.454376 c 14.50323,12.349908 26.21078,23.175634 26.01677,24.057164 -0.39925,1.81402 -80.75343,56.61346 -83.01414,56.61346 -0.80431,0 -6.65646,-6.96629 -13.00476,-15.48065 z m 15.53104,-16.47934 c 0.92579,-13.70325 1.48536,-25.13957 1.24349,-25.41403 -0.94429,-1.07153 -24.26371,22.99203 -23.7013,24.45763 1.05124,2.73949 20.07927,27.63709 20.43373,26.73693 0.18747,-0.47604 1.09831,-12.07728 2.02408,-25.78053 z m 49.8226,-8.01806 c 13.57812,-9.16818 24.6515,-17.00186 24.6075,-17.40818 -0.044,-0.40632 -10.59088,-9.687769 -23.4375,-20.625435 l -23.3575,-19.886664 -1.25,8.304034 c -1.22271,8.122784 -1.46004,8.51592 -10.87278,18.011665 l -9.62276,9.70763 -1.31602,21.25 c -0.72383,11.6875 -1.62418,23.98299 -2.0008,27.32331 l -0.68478,6.07331 11.62356,-8.04012 c 6.39297,-4.42208 22.73296,-15.54138 36.31108,-24.70955 z m -73.51079,0.0531 4.80909,-4.92495 -15.2835,3.93492 c -16.482005,4.2435 -17.098796,5.67059 -2.51849,5.82711 7.92611,0.0851 8.33526,-0.0673 12.9929,-4.83708 z m -17.61295,-3.45218 27.68624,-7.12714 7.59174,-6.73992 7.59174,-6.739932 -2.85776,-21.445439 c -1.57176,-11.794991 -2.87866,-21.791896 -2.90423,-22.215343 -0.0255,-0.423447 -8.78859,-1.17632 -19.47338,-1.673048 L 101.14622,52.278902 73.385609,66.943972 C 23.753872,93.162881 27.53384,90.764328 29.140062,95.019698 c 1.019451,2.700832 1.019278,5.068322 -6.46e-4,8.889482 -1.300467,4.87221 -1.108531,5.72059 2.974925,13.14953 L 36.479424,125 l 7.388541,0 c 7.101193,0 7.570717,-0.20412 12.072789,-5.2485 2.576335,-2.88668 13.862864,-15.12105 25.081175,-27.187503 L 101.41886,70.625 94.459429,70.25012 C 85.72668,69.779718 85.211191,67.329496 93.044331,63.523864 l 5.544331,-2.693644 4.455668,3.398504 c 2.45062,1.869177 4.44868,4.073002 4.44014,4.89739 -0.009,0.824387 -11.256125,13.592636 -24.994619,28.373886 -13.738492,14.78125 -24.981502,27.29688 -24.984465,27.8125 -0.003,0.51563 3.988929,0.9375 8.87087,0.9375 6.726641,0 15.581203,-1.72602 36.562504,-7.12713 z M 26.230859,99.301412 c 0.03436,-2.376176 -3.31712,-5.954659 -4.748438,-5.070056 -0.991113,0.612541 -0.796497,2.122224 0.670027,5.197558 1.921931,4.030326 4.019231,3.964766 4.078411,-0.127502 z M 168.46345,49.679911 c 1.69576,-21.286755 1.8863,-28.04997 0.75712,-26.875 -0.8299,0.863549 -6.90554,8.038839 -13.50146,15.945089 -8.45897,10.139435 -11.83632,15.11162 -11.46231,16.875 0.29164,1.375 1.54346,10.8111 2.78184,20.96911 l 2.25158,18.46911 8.4536,-8.46911 8.4536,-8.46911 2.26603,-28.445089 z m -22.43449,-6.09819 c 2.87158,-3.530052 5.22104,-6.927242 5.22104,-7.549312 0,-0.622069 -1.92765,-3.993439 -4.28368,-7.491933 l -4.28368,-6.360899 -1.44864,5.472712 c -0.79675,3.009991 -2.48951,9.269586 -3.76169,13.910211 L 135.15927,50 l 2.82433,0 c 1.88785,0 4.5555,-2.128144 8.04536,-6.418279 z"
                id="path3454"
                inkscape:connector-curvature="0"/>
        <path
                style="fill-opacity:1"
                d="m 128.70886,147.01935 -11.54238,-15.48064 -20.770737,-0.6369 C 84.971834,130.55151 72.25,130.1589 68.125,130.02934 64,129.89977 54.453502,129.4183 46.910562,128.95939 L 33.196124,128.125 24.102977,111.875 c -5.001231,-8.9375 -9.095358,-16.893267 -9.098062,-17.679484 -0.0027,-0.786215 18.892979,-11.41739 41.990404,-23.624832 l 41.995318,-22.195349 15.938163,0.762367 15.93816,0.762369 3.38741,-12.762536 c 1.86309,-7.019394 3.9397,-14.87191 4.6147,-17.450035 C 139.54409,17.109375 140.8359,15 141.73979,15 c 0.90387,0 4.28451,3.97183 7.51251,8.826288 l 5.86907,8.826287 8.321,-10.076287 C 168.01893,17.03433 172.55906,12.5 173.53156,12.5 c 1.77893,0 1.6437,9.936582 -0.51883,38.125 l -0.67128,8.75 26.36954,22.454376 c 14.50323,12.349908 26.21078,23.175634 26.01677,24.057164 -0.39925,1.81402 -80.75343,56.61346 -83.01414,56.61346 -0.80431,0 -6.65646,-6.96629 -13.00476,-15.48065 z m 15.53104,-16.47934 c 0.92579,-13.70325 1.48536,-25.13957 1.24349,-25.41403 -0.94429,-1.07153 -24.26371,22.99203 -23.7013,24.45763 1.05124,2.73949 20.07927,27.63709 20.43373,26.73693 0.18747,-0.47604 1.09831,-12.07728 2.02408,-25.78053 z m 49.8226,-8.01806 c 13.57812,-9.16818 24.6515,-17.00186 24.6075,-17.40818 -0.044,-0.40632 -10.59088,-9.687769 -23.4375,-20.625435 l -23.3575,-19.886664 -1.25,8.304034 c -1.22271,8.122784 -1.46004,8.51592 -10.87278,18.011665 l -9.62276,9.70763 -1.31602,21.25 c -0.72383,11.6875 -1.62418,23.98299 -2.0008,27.32331 l -0.68478,6.07331 11.62356,-8.04012 c 6.39297,-4.42208 22.73296,-15.54138 36.31108,-24.70955 z m -73.51079,0.0531 4.80909,-4.92495 -15.2835,3.93492 c -16.482005,4.2435 -17.098796,5.67059 -2.51849,5.82711 7.92611,0.0851 8.33526,-0.0673 12.9929,-4.83708 z m -17.61295,-3.45218 27.68624,-7.12714 7.59174,-6.73992 7.59174,-6.739932 -2.85776,-21.445439 c -1.57176,-11.794991 -2.87866,-21.791896 -2.90423,-22.215343 -0.0255,-0.423447 -8.78859,-1.17632 -19.47338,-1.673048 L 101.14622,52.278902 73.385609,66.943972 C 23.753872,93.162881 27.53384,90.764328 29.140062,95.019698 c 1.019451,2.700832 1.019278,5.068322 -6.46e-4,8.889482 -1.300467,4.87221 -1.108531,5.72059 2.974925,13.14953 L 36.479424,125 l 7.388541,0 c 7.101193,0 7.570717,-0.20412 12.072789,-5.2485 2.576335,-2.88668 13.862864,-15.12105 25.081175,-27.187503 L 101.41886,70.625 94.459429,70.25012 C 85.72668,69.779718 85.211191,67.329496 93.044331,63.523864 l 5.544331,-2.693644 4.455668,3.398504 c 2.45062,1.869177 4.44868,4.073002 4.44014,4.89739 -0.009,0.824387 -11.256125,13.592636 -24.994619,28.373886 -13.738492,14.78125 -24.981502,27.29688 -24.984465,27.8125 -0.003,0.51563 3.988929,0.9375 8.87087,0.9375 6.726641,0 15.581203,-1.72602 36.562504,-7.12713 z M 26.230859,99.301412 c 0.03436,-2.376176 -3.31712,-5.954659 -4.748438,-5.070056 -0.991113,0.612541 -0.796497,2.122224 0.670027,5.197558 1.921931,4.030326 4.019231,3.964766 4.078411,-0.127502 z M 168.46345,49.679911 c 1.69576,-21.286755 1.8863,-28.04997 0.75712,-26.875 -0.8299,0.863549 -6.90554,8.038839 -13.50146,15.945089 -8.45897,10.139435 -11.83632,15.11162 -11.46231,16.875 0.29164,1.375 1.54346,10.8111 2.78184,20.96911 l 2.25158,18.46911 8.4536,-8.46911 8.4536,-8.46911 2.26603,-28.445089 z m -22.43449,-6.09819 c 2.87158,-3.530052 5.22104,-6.927242 5.22104,-7.549312 0,-0.622069 -1.92765,-3.993439 -4.28368,-7.491933 l -4.28368,-6.360899 -1.44864,5.472712 c -0.79675,3.009991 -2.48951,9.269586 -3.76169,13.910211 L 135.15927,50 l 2.82433,0 c 1.88785,0 4.5555,-2.128144 8.04536,-6.418279 z"
                id="path3452"
                inkscape:connector-curvature="0"/>
        <path
                style="fill-opacity:1"
                d="m 128.70886,147.01935 -11.54238,-15.48064 -20.770737,-0.6369 C 84.971834,130.55151 72.25,130.1589 68.125,130.02934 64,129.89977 54.453502,129.4183 46.910562,128.95939 L 33.196124,128.125 24.102977,111.875 c -5.001231,-8.9375 -9.095358,-16.893267 -9.098062,-17.679484 -0.0027,-0.786215 18.892979,-11.41739 41.990404,-23.624832 l 41.995318,-22.195349 15.938163,0.762367 15.93816,0.762369 3.38741,-12.762536 c 1.86309,-7.019394 3.9397,-14.87191 4.6147,-17.450035 C 139.54409,17.109375 140.8359,15 141.73979,15 c 0.90387,0 4.28451,3.97183 7.51251,8.826288 l 5.86907,8.826287 8.321,-10.076287 C 168.01893,17.03433 172.55906,12.5 173.53156,12.5 c 1.77893,0 1.6437,9.936582 -0.51883,38.125 l -0.67128,8.75 26.36954,22.454376 c 14.50323,12.349908 26.21078,23.175634 26.01677,24.057164 -0.39925,1.81402 -80.75343,56.61346 -83.01414,56.61346 -0.80431,0 -6.65646,-6.96629 -13.00476,-15.48065 z m 15.53104,-16.47934 c 0.92579,-13.70325 1.48536,-25.13957 1.24349,-25.41403 -0.94429,-1.07153 -24.26371,22.99203 -23.7013,24.45763 1.05124,2.73949 20.07927,27.63709 20.43373,26.73693 0.18747,-0.47604 1.09831,-12.07728 2.02408,-25.78053 z m 49.8226,-8.01806 c 13.57812,-9.16818 24.6515,-17.00186 24.6075,-17.40818 -0.044,-0.40632 -10.59088,-9.687769 -23.4375,-20.625435 l -23.3575,-19.886664 -1.25,8.304034 c -1.22271,8.122784 -1.46004,8.51592 -10.87278,18.011665 l -9.62276,9.70763 -1.31602,21.25 c -0.72383,11.6875 -1.62418,23.98299 -2.0008,27.32331 l -0.68478,6.07331 11.62356,-8.04012 c 6.39297,-4.42208 22.73296,-15.54138 36.31108,-24.70955 z m -73.51079,0.0531 4.80909,-4.92495 -15.2835,3.93492 c -16.482005,4.2435 -17.098796,5.67059 -2.51849,5.82711 7.92611,0.0851 8.33526,-0.0673 12.9929,-4.83708 z m -17.61295,-3.45218 27.68624,-7.12714 7.59174,-6.73992 7.59174,-6.739932 -2.85776,-21.445439 c -1.57176,-11.794991 -2.87866,-21.791896 -2.90423,-22.215343 -0.0255,-0.423447 -8.78859,-1.17632 -19.47338,-1.673048 L 101.14622,52.278902 73.385609,66.943972 C 23.753872,93.162881 27.53384,90.764328 29.140062,95.019698 c 1.019451,2.700832 1.019278,5.068322 -6.46e-4,8.889482 -1.300467,4.87221 -1.108531,5.72059 2.974925,13.14953 L 36.479424,125 l 7.388541,0 c 7.101193,0 7.570717,-0.20412 12.072789,-5.2485 2.576335,-2.88668 13.862864,-15.12105 25.081175,-27.187503 L 101.41886,70.625 94.459429,70.25012 C 85.72668,69.779718 85.211191,67.329496 93.044331,63.523864 l 5.544331,-2.693644 4.455668,3.398504 c 2.45062,1.869177 4.44868,4.073002 4.44014,4.89739 -0.009,0.824387 -11.256125,13.592636 -24.994619,28.373886 -13.738492,14.78125 -24.981502,27.29688 -24.984465,27.8125 -0.003,0.51563 3.988929,0.9375 8.87087,0.9375 6.726641,0 15.581203,-1.72602 36.562504,-7.12713 z M 26.230859,99.301412 c 0.03436,-2.376176 -3.31712,-5.954659 -4.748438,-5.070056 -0.991113,0.612541 -0.796497,2.122224 0.670027,5.197558 1.921931,4.030326 4.019231,3.964766 4.078411,-0.127502 z M 168.46345,49.679911 c 1.69576,-21.286755 1.8863,-28.04997 0.75712,-26.875 -0.8299,0.863549 -6.90554,8.038839 -13.50146,15.945089 -8.45897,10.139435 -11.83632,15.11162 -11.46231,16.875 0.29164,1.375 1.54346,10.8111 2.78184,20.96911 l 2.25158,18.46911 8.4536,-8.46911 8.4536,-8.46911 2.26603,-28.445089 z m -22.43449,-6.09819 c 2.87158,-3.530052 5.22104,-6.927242 5.22104,-7.549312 0,-0.622069 -1.92765,-3.993439 -4.28368,-7.491933 l -4.28368,-6.360899 -1.44864,5.472712 c -0.79675,3.009991 -2.48951,9.269586 -3.76169,13.910211 L 135.15927,50 l 2.82433,0 c 1.88785,0 4.5555,-2.128144 8.04536,-6.418279 z"
                id="path3450"
                inkscape:connector-curvature="0"/>
        <path
                style="fill-opacity:1"
                d="m 128.70886,147.01935 -11.54238,-15.48064 -20.770737,-0.6369 C 84.971834,130.55151 72.25,130.1589 68.125,130.02934 64,129.89977 54.453502,129.4183 46.910562,128.95939 L 33.196124,128.125 24.102977,111.875 c -5.001231,-8.9375 -9.095358,-16.893267 -9.098062,-17.679484 -0.0027,-0.786215 18.892979,-11.41739 41.990404,-23.624832 l 41.995318,-22.195349 15.938163,0.762367 15.93816,0.762369 3.38741,-12.762536 c 1.86309,-7.019394 3.9397,-14.87191 4.6147,-17.450035 C 139.54409,17.109375 140.8359,15 141.73979,15 c 0.90387,0 4.28451,3.97183 7.51251,8.826288 l 5.86907,8.826287 8.321,-10.076287 C 168.01893,17.03433 172.55906,12.5 173.53156,12.5 c 1.77893,0 1.6437,9.936582 -0.51883,38.125 l -0.67128,8.75 26.36954,22.454376 c 14.50323,12.349908 26.21078,23.175634 26.01677,24.057164 -0.39925,1.81402 -80.75343,56.61346 -83.01414,56.61346 -0.80431,0 -6.65646,-6.96629 -13.00476,-15.48065 z m 15.53104,-16.47934 c 0.92579,-13.70325 1.48536,-25.13957 1.24349,-25.41403 -0.94429,-1.07153 -24.26371,22.99203 -23.7013,24.45763 1.05124,2.73949 20.07927,27.63709 20.43373,26.73693 0.18747,-0.47604 1.09831,-12.07728 2.02408,-25.78053 z m 49.8226,-8.01806 c 13.57812,-9.16818 24.6515,-17.00186 24.6075,-17.40818 -0.044,-0.40632 -10.59088,-9.687769 -23.4375,-20.625435 l -23.3575,-19.886664 -1.25,8.304034 c -1.22271,8.122784 -1.46004,8.51592 -10.87278,18.011665 l -9.62276,9.70763 -1.31602,21.25 c -0.72383,11.6875 -1.62418,23.98299 -2.0008,27.32331 l -0.68478,6.07331 11.62356,-8.04012 c 6.39297,-4.42208 22.73296,-15.54138 36.31108,-24.70955 z m -73.51079,0.0531 4.80909,-4.92495 -15.2835,3.93492 c -16.482005,4.2435 -17.098796,5.67059 -2.51849,5.82711 7.92611,0.0851 8.33526,-0.0673 12.9929,-4.83708 z m -17.61295,-3.45218 27.68624,-7.12714 7.59174,-6.73992 7.59174,-6.739932 -2.85776,-21.445439 c -1.57176,-11.794991 -2.87866,-21.791896 -2.90423,-22.215343 -0.0255,-0.423447 -8.78859,-1.17632 -19.47338,-1.673048 L 101.14622,52.278902 73.385609,66.943972 C 23.753872,93.162881 27.53384,90.764328 29.140062,95.019698 c 1.019451,2.700832 1.019278,5.068322 -6.46e-4,8.889482 -1.300467,4.87221 -1.108531,5.72059 2.974925,13.14953 L 36.479424,125 l 7.388541,0 c 7.101193,0 7.570717,-0.20412 12.072789,-5.2485 2.576335,-2.88668 13.862864,-15.12105 25.081175,-27.187503 L 101.41886,70.625 94.459429,70.25012 C 85.72668,69.779718 85.211191,67.329496 93.044331,63.523864 l 5.544331,-2.693644 4.455668,3.398504 c 2.45062,1.869177 4.44868,4.073002 4.44014,4.89739 -0.009,0.824387 -11.256125,13.592636 -24.994619,28.373886 -13.738492,14.78125 -24.981502,27.29688 -24.984465,27.8125 -0.003,0.51563 3.988929,0.9375 8.87087,0.9375 6.726641,0 15.581203,-1.72602 36.562504,-7.12713 z M 26.230859,99.301412 c 0.03436,-2.376176 -3.31712,-5.954659 -4.748438,-5.070056 -0.991113,0.612541 -0.796497,2.122224 0.670027,5.197558 1.921931,4.030326 4.019231,3.964766 4.078411,-0.127502 z M 168.46345,49.679911 c 1.69576,-21.286755 1.8863,-28.04997 0.75712,-26.875 -0.8299,0.863549 -6.90554,8.038839 -13.50146,15.945089 -8.45897,10.139435 -11.83632,15.11162 -11.46231,16.875 0.29164,1.375 1.54346,10.8111 2.78184,20.96911 l 2.25158,18.46911 8.4536,-8.46911 8.4536,-8.46911 2.26603,-28.445089 z m -22.43449,-6.09819 c 2.87158,-3.530052 5.22104,-6.927242 5.22104,-7.549312 0,-0.622069 -1.92765,-3.993439 -4.28368,-7.491933 l -4.28368,-6.360899 -1.44864,5.472712 c -0.79675,3.009991 -2.48951,9.269586 -3.76169,13.910211 L 135.15927,50 l 2.82433,0 c 1.88785,0 4.5555,-2.128144 8.04536,-6.418279 z"
                id="path3448"
                inkscape:connector-curvature="0"/>
        <path
                style="fill-opacity:1"
                d="m 128.70886,147.01935 -11.54238,-15.48064 -20.770737,-0.6369 C 84.971834,130.55151 72.25,130.1589 68.125,130.02934 64,129.89977 54.453502,129.4183 46.910562,128.95939 L 33.196124,128.125 24.102977,111.875 c -5.001231,-8.9375 -9.095358,-16.893267 -9.098062,-17.679484 -0.0027,-0.786215 18.892979,-11.41739 41.990404,-23.624832 l 41.995318,-22.195349 15.938163,0.762367 15.93816,0.762369 3.38741,-12.762536 c 1.86309,-7.019394 3.9397,-14.87191 4.6147,-17.450035 C 139.54409,17.109375 140.8359,15 141.73979,15 c 0.90387,0 4.28451,3.97183 7.51251,8.826288 l 5.86907,8.826287 8.321,-10.076287 C 168.01893,17.03433 172.55906,12.5 173.53156,12.5 c 1.77893,0 1.6437,9.936582 -0.51883,38.125 l -0.67128,8.75 26.36954,22.454376 c 14.50323,12.349908 26.21078,23.175634 26.01677,24.057164 -0.39925,1.81402 -80.75343,56.61346 -83.01414,56.61346 -0.80431,0 -6.65646,-6.96629 -13.00476,-15.48065 z m 15.53104,-16.47934 c 0.92579,-13.70325 1.48536,-25.13957 1.24349,-25.41403 -0.94429,-1.07153 -24.26371,22.99203 -23.7013,24.45763 1.05124,2.73949 20.07927,27.63709 20.43373,26.73693 0.18747,-0.47604 1.09831,-12.07728 2.02408,-25.78053 z m 49.8226,-8.01806 c 13.57812,-9.16818 24.6515,-17.00186 24.6075,-17.40818 -0.044,-0.40632 -10.59088,-9.687769 -23.4375,-20.625435 l -23.3575,-19.886664 -1.25,8.304034 c -1.22271,8.122784 -1.46004,8.51592 -10.87278,18.011665 l -9.62276,9.70763 -1.31602,21.25 c -0.72383,11.6875 -1.62418,23.98299 -2.0008,27.32331 l -0.68478,6.07331 11.62356,-8.04012 c 6.39297,-4.42208 22.73296,-15.54138 36.31108,-24.70955 z m -73.51079,0.0531 4.80909,-4.92495 -15.2835,3.93492 c -16.482005,4.2435 -17.098796,5.67059 -2.51849,5.82711 7.92611,0.0851 8.33526,-0.0673 12.9929,-4.83708 z m -17.61295,-3.45218 27.68624,-7.12714 7.59174,-6.73992 7.59174,-6.739932 -2.85776,-21.445439 c -1.57176,-11.794991 -2.87866,-21.791896 -2.90423,-22.215343 -0.0255,-0.423447 -8.78859,-1.17632 -19.47338,-1.673048 L 101.14622,52.278902 73.385609,66.943972 C 23.753872,93.162881 27.53384,90.764328 29.140062,95.019698 c 1.019451,2.700832 1.019278,5.068322 -6.46e-4,8.889482 -1.300467,4.87221 -1.108531,5.72059 2.974925,13.14953 L 36.479424,125 l 7.388541,0 c 7.101193,0 7.570717,-0.20412 12.072789,-5.2485 2.576335,-2.88668 13.862864,-15.12105 25.081175,-27.187503 L 101.41886,70.625 94.459429,70.25012 C 85.72668,69.779718 85.211191,67.329496 93.044331,63.523864 l 5.544331,-2.693644 4.455668,3.398504 c 2.45062,1.869177 4.44868,4.073002 4.44014,4.89739 -0.009,0.824387 -11.256125,13.592636 -24.994619,28.373886 -13.738492,14.78125 -24.981502,27.29688 -24.984465,27.8125 -0.003,0.51563 3.988929,0.9375 8.87087,0.9375 6.726641,0 15.581203,-1.72602 36.562504,-7.12713 z M 26.230859,99.301412 c 0.03436,-2.376176 -3.31712,-5.954659 -4.748438,-5.070056 -0.991113,0.612541 -0.796497,2.122224 0.670027,5.197558 1.921931,4.030326 4.019231,3.964766 4.078411,-0.127502 z M 168.46345,49.679911 c 1.69576,-21.286755 1.8863,-28.04997 0.75712,-26.875 -0.8299,0.863549 -6.90554,8.038839 -13.50146,15.945089 -8.45897,10.139435 -11.83632,15.11162 -11.46231,16.875 0.29164,1.375 1.54346,10.8111 2.78184,20.96911 l 2.25158,18.46911 8.4536,-8.46911 8.4536,-8.46911 2.26603,-28.445089 z m -22.43449,-6.09819 c 2.87158,-3.530052 5.22104,-6.927242 5.22104,-7.549312 0,-0.622069 -1.92765,-3.993439 -4.28368,-7.491933 l -4.28368,-6.360899 -1.44864,5.472712 c -0.79675,3.009991 -2.48951,9.269586 -3.76169,13.910211 L 135.15927,50 l 2.82433,0 c 1.88785,0 4.5555,-2.128144 8.04536,-6.418279 z"
                id="path3446"
                inkscape:connector-curvature="0"/>
        <path
                style="fill-opacity:1"
                d="m 128.70886,147.01935 -11.54238,-15.48064 -20.770737,-0.6369 C 84.971834,130.55151 72.25,130.1589 68.125,130.02934 64,129.89977 54.453502,129.4183 46.910562,128.95939 L 33.196124,128.125 24.102977,111.875 c -5.001231,-8.9375 -9.095358,-16.893267 -9.098062,-17.679484 -0.0027,-0.786215 18.892979,-11.41739 41.990404,-23.624832 l 41.995318,-22.195349 15.938163,0.762367 15.93816,0.762369 3.38741,-12.762536 c 1.86309,-7.019394 3.9397,-14.87191 4.6147,-17.450035 C 139.54409,17.109375 140.8359,15 141.73979,15 c 0.90387,0 4.28451,3.97183 7.51251,8.826288 l 5.86907,8.826287 8.321,-10.076287 C 168.01893,17.03433 172.55906,12.5 173.53156,12.5 c 1.77893,0 1.6437,9.936582 -0.51883,38.125 l -0.67128,8.75 26.36954,22.454376 c 14.50323,12.349908 26.21078,23.175634 26.01677,24.057164 -0.39925,1.81402 -80.75343,56.61346 -83.01414,56.61346 -0.80431,0 -6.65646,-6.96629 -13.00476,-15.48065 z m 15.53104,-16.47934 c 0.92579,-13.70325 1.48536,-25.13957 1.24349,-25.41403 -0.94429,-1.07153 -24.26371,22.99203 -23.7013,24.45763 1.05124,2.73949 20.07927,27.63709 20.43373,26.73693 0.18747,-0.47604 1.09831,-12.07728 2.02408,-25.78053 z m 49.8226,-8.01806 c 13.57812,-9.16818 24.6515,-17.00186 24.6075,-17.40818 -0.044,-0.40632 -10.59088,-9.687769 -23.4375,-20.625435 l -23.3575,-19.886664 -1.25,8.304034 c -1.22271,8.122784 -1.46004,8.51592 -10.87278,18.011665 l -9.62276,9.70763 -1.31602,21.25 c -0.72383,11.6875 -1.62418,23.98299 -2.0008,27.32331 l -0.68478,6.07331 11.62356,-8.04012 c 6.39297,-4.42208 22.73296,-15.54138 36.31108,-24.70955 z m -73.51079,0.0531 4.80909,-4.92495 -15.2835,3.93492 c -16.482005,4.2435 -17.098796,5.67059 -2.51849,5.82711 7.92611,0.0851 8.33526,-0.0673 12.9929,-4.83708 z m -17.61295,-3.45218 27.68624,-7.12714 7.59174,-6.73992 7.59174,-6.739932 -2.85776,-21.445439 c -1.57176,-11.794991 -2.87866,-21.791896 -2.90423,-22.215343 -0.0255,-0.423447 -8.78859,-1.17632 -19.47338,-1.673048 L 101.14622,52.278902 73.385609,66.943972 C 23.753872,93.162881 27.53384,90.764328 29.140062,95.019698 c 1.019451,2.700832 1.019278,5.068322 -6.46e-4,8.889482 -1.300467,4.87221 -1.108531,5.72059 2.974925,13.14953 L 36.479424,125 l 7.388541,0 c 7.101193,0 7.570717,-0.20412 12.072789,-5.2485 2.576335,-2.88668 13.862864,-15.12105 25.081175,-27.187503 L 101.41886,70.625 94.459429,70.25012 C 85.72668,69.779718 85.211191,67.329496 93.044331,63.523864 l 5.544331,-2.693644 4.455668,3.398504 c 2.45062,1.869177 4.44868,4.073002 4.44014,4.89739 -0.009,0.824387 -11.256125,13.592636 -24.994619,28.373886 -13.738492,14.78125 -24.981502,27.29688 -24.984465,27.8125 -0.003,0.51563 3.988929,0.9375 8.87087,0.9375 6.726641,0 15.581203,-1.72602 36.562504,-7.12713 z M 26.230859,99.301412 c 0.03436,-2.376176 -3.31712,-5.954659 -4.748438,-5.070056 -0.991113,0.612541 -0.796497,2.122224 0.670027,5.197558 1.921931,4.030326 4.019231,3.964766 4.078411,-0.127502 z M 168.46345,49.679911 c 1.69576,-21.286755 1.8863,-28.04997 0.75712,-26.875 -0.8299,0.863549 -6.90554,8.038839 -13.50146,15.945089 -8.45897,10.139435 -11.83632,15.11162 -11.46231,16.875 0.29164,1.375 1.54346,10.8111 2.78184,20.96911 l 2.25158,18.46911 8.4536,-8.46911 8.4536,-8.46911 2.26603,-28.445089 z m -22.43449,-6.09819 c 2.87158,-3.530052 5.22104,-6.927242 5.22104,-7.549312 0,-0.622069 -1.92765,-3.993439 -4.28368,-7.491933 l -4.28368,-6.360899 -1.44864,5.472712 c -0.79675,3.009991 -2.48951,9.269586 -3.76169,13.910211 L 135.15927,50 l 2.82433,0 c 1.88785,0 4.5555,-2.128144 8.04536,-6.418279 z"
                id="path3444"
                inkscape:connector-curvature="0"/>
        <path
                style="fill-opacity:1"
                d="m 128.70886,147.01935 -11.54238,-15.48064 -20.770737,-0.6369 C 84.971834,130.55151 72.25,130.1589 68.125,130.02934 64,129.89977 54.453502,129.4183 46.910562,128.95939 L 33.196124,128.125 24.102977,111.875 c -5.001231,-8.9375 -9.095358,-16.893267 -9.098062,-17.679484 -0.0027,-0.786215 18.892979,-11.41739 41.990404,-23.624832 l 41.995318,-22.195349 15.938163,0.762367 15.93816,0.762369 3.38741,-12.762536 c 1.86309,-7.019394 3.9397,-14.87191 4.6147,-17.450035 C 139.54409,17.109375 140.8359,15 141.73979,15 c 0.90387,0 4.28451,3.97183 7.51251,8.826288 l 5.86907,8.826287 8.321,-10.076287 C 168.01893,17.03433 172.55906,12.5 173.53156,12.5 c 1.77893,0 1.6437,9.936582 -0.51883,38.125 l -0.67128,8.75 26.36954,22.454376 c 14.50323,12.349908 26.21078,23.175634 26.01677,24.057164 -0.39925,1.81402 -80.75343,56.61346 -83.01414,56.61346 -0.80431,0 -6.65646,-6.96629 -13.00476,-15.48065 z m 15.53104,-16.47934 c 0.92579,-13.70325 1.48536,-25.13957 1.24349,-25.41403 -0.94429,-1.07153 -24.26371,22.99203 -23.7013,24.45763 1.05124,2.73949 20.07927,27.63709 20.43373,26.73693 0.18747,-0.47604 1.09831,-12.07728 2.02408,-25.78053 z m 49.8226,-8.01806 c 13.57812,-9.16818 24.6515,-17.00186 24.6075,-17.40818 -0.044,-0.40632 -10.59088,-9.687769 -23.4375,-20.625435 l -23.3575,-19.886664 -1.25,8.304034 c -1.22271,8.122784 -1.46004,8.51592 -10.87278,18.011665 l -9.62276,9.70763 -1.31602,21.25 c -0.72383,11.6875 -1.62418,23.98299 -2.0008,27.32331 l -0.68478,6.07331 11.62356,-8.04012 c 6.39297,-4.42208 22.73296,-15.54138 36.31108,-24.70955 z m -73.51079,0.0531 4.80909,-4.92495 -15.2835,3.93492 c -16.482005,4.2435 -17.098796,5.67059 -2.51849,5.82711 7.92611,0.0851 8.33526,-0.0673 12.9929,-4.83708 z m -17.61295,-3.45218 27.68624,-7.12714 7.59174,-6.73992 7.59174,-6.739932 -2.85776,-21.445439 c -1.57176,-11.794991 -2.87866,-21.791896 -2.90423,-22.215343 -0.0255,-0.423447 -8.78859,-1.17632 -19.47338,-1.673048 L 101.14622,52.278902 73.385609,66.943972 C 23.753872,93.162881 27.53384,90.764328 29.140062,95.019698 c 1.019451,2.700832 1.019278,5.068322 -6.46e-4,8.889482 -1.300467,4.87221 -1.108531,5.72059 2.974925,13.14953 L 36.479424,125 l 7.388541,0 c 7.101193,0 7.570717,-0.20412 12.072789,-5.2485 2.576335,-2.88668 13.862864,-15.12105 25.081175,-27.187503 L 101.41886,70.625 94.459429,70.25012 C 85.72668,69.779718 85.211191,67.329496 93.044331,63.523864 l 5.544331,-2.693644 4.455668,3.398504 c 2.45062,1.869177 4.44868,4.073002 4.44014,4.89739 -0.009,0.824387 -11.256125,13.592636 -24.994619,28.373886 -13.738492,14.78125 -24.981502,27.29688 -24.984465,27.8125 -0.003,0.51563 3.988929,0.9375 8.87087,0.9375 6.726641,0 15.581203,-1.72602 36.562504,-7.12713 z M 26.230859,99.301412 c 0.03436,-2.376176 -3.31712,-5.954659 -4.748438,-5.070056 -0.991113,0.612541 -0.796497,2.122224 0.670027,5.197558 1.921931,4.030326 4.019231,3.964766 4.078411,-0.127502 z M 168.46345,49.679911 c 1.69576,-21.286755 1.8863,-28.04997 0.75712,-26.875 -0.8299,0.863549 -6.90554,8.038839 -13.50146,15.945089 -8.45897,10.139435 -11.83632,15.11162 -11.46231,16.875 0.29164,1.375 1.54346,10.8111 2.78184,20.96911 l 2.25158,18.46911 8.4536,-8.46911 8.4536,-8.46911 2.26603,-28.445089 z m -22.43449,-6.09819 c 2.87158,-3.530052 5.22104,-6.927242 5.22104,-7.549312 0,-0.622069 -1.92765,-3.993439 -4.28368,-7.491933 l -4.28368,-6.360899 -1.44864,5.472712 c -0.79675,3.009991 -2.48951,9.269586 -3.76169,13.910211 L 135.15927,50 l 2.82433,0 c 1.88785,0 4.5555,-2.128144 8.04536,-6.418279 z"
                id="path3442"
                inkscape:connector-curvature="0"/>
        <path
                style="fill-opacity:1"
                d="m 128.70886,147.01935 -11.54238,-15.48064 -20.770737,-0.6369 C 84.971834,130.55151 72.25,130.1589 68.125,130.02934 64,129.89977 54.453502,129.4183 46.910562,128.95939 L 33.196124,128.125 24.102977,111.875 c -5.001231,-8.9375 -9.095358,-16.893267 -9.098062,-17.679484 -0.0027,-0.786215 18.892979,-11.41739 41.990404,-23.624832 l 41.995318,-22.195349 15.938163,0.762367 15.93816,0.762369 3.38741,-12.762536 c 1.86309,-7.019394 3.9397,-14.87191 4.6147,-17.450035 C 139.54409,17.109375 140.8359,15 141.73979,15 c 0.90387,0 4.28451,3.97183 7.51251,8.826288 l 5.86907,8.826287 8.321,-10.076287 C 168.01893,17.03433 172.55906,12.5 173.53156,12.5 c 1.77893,0 1.6437,9.936582 -0.51883,38.125 l -0.67128,8.75 26.36954,22.454376 c 14.50323,12.349908 26.21078,23.175634 26.01677,24.057164 -0.39925,1.81402 -80.75343,56.61346 -83.01414,56.61346 -0.80431,0 -6.65646,-6.96629 -13.00476,-15.48065 z m 15.53104,-16.47934 c 0.92579,-13.70325 1.48536,-25.13957 1.24349,-25.41403 -0.94429,-1.07153 -24.26371,22.99203 -23.7013,24.45763 1.05124,2.73949 20.07927,27.63709 20.43373,26.73693 0.18747,-0.47604 1.09831,-12.07728 2.02408,-25.78053 z m 49.8226,-8.01806 c 13.57812,-9.16818 24.6515,-17.00186 24.6075,-17.40818 -0.044,-0.40632 -10.59088,-9.687769 -23.4375,-20.625435 l -23.3575,-19.886664 -1.25,8.304034 c -1.22271,8.122784 -1.46004,8.51592 -10.87278,18.011665 l -9.62276,9.70763 -1.31602,21.25 c -0.72383,11.6875 -1.62418,23.98299 -2.0008,27.32331 l -0.68478,6.07331 11.62356,-8.04012 c 6.39297,-4.42208 22.73296,-15.54138 36.31108,-24.70955 z m -73.51079,0.0531 4.80909,-4.92495 -15.2835,3.93492 c -16.482005,4.2435 -17.098796,5.67059 -2.51849,5.82711 7.92611,0.0851 8.33526,-0.0673 12.9929,-4.83708 z m -17.61295,-3.45218 27.68624,-7.12714 7.59174,-6.73992 7.59174,-6.739932 -2.85776,-21.445439 c -1.57176,-11.794991 -2.87866,-21.791896 -2.90423,-22.215343 -0.0255,-0.423447 -8.78859,-1.17632 -19.47338,-1.673048 L 101.14622,52.278902 73.385609,66.943972 C 23.753872,93.162881 27.53384,90.764328 29.140062,95.019698 c 1.019451,2.700832 1.019278,5.068322 -6.46e-4,8.889482 -1.300467,4.87221 -1.108531,5.72059 2.974925,13.14953 L 36.479424,125 l 7.388541,0 c 7.101193,0 7.570717,-0.20412 12.072789,-5.2485 2.576335,-2.88668 13.862864,-15.12105 25.081175,-27.187503 L 101.41886,70.625 94.459429,70.25012 C 85.72668,69.779718 85.211191,67.329496 93.044331,63.523864 l 5.544331,-2.693644 4.455668,3.398504 c 2.45062,1.869177 4.44868,4.073002 4.44014,4.89739 -0.009,0.824387 -11.256125,13.592636 -24.994619,28.373886 -13.738492,14.78125 -24.981502,27.29688 -24.984465,27.8125 -0.003,0.51563 3.988929,0.9375 8.87087,0.9375 6.726641,0 15.581203,-1.72602 36.562504,-7.12713 z M 26.230859,99.301412 c 0.03436,-2.376176 -3.31712,-5.954659 -4.748438,-5.070056 -0.991113,0.612541 -0.796497,2.122224 0.670027,5.197558 1.921931,4.030326 4.019231,3.964766 4.078411,-0.127502 z M 168.46345,49.679911 c 1.69576,-21.286755 1.8863,-28.04997 0.75712,-26.875 -0.8299,0.863549 -6.90554,8.038839 -13.50146,15.945089 -8.45897,10.139435 -11.83632,15.11162 -11.46231,16.875 0.29164,1.375 1.54346,10.8111 2.78184,20.96911 l 2.25158,18.46911 8.4536,-8.46911 8.4536,-8.46911 2.26603,-28.445089 z m -22.43449,-6.09819 c 2.87158,-3.530052 5.22104,-6.927242 5.22104,-7.549312 0,-0.622069 -1.92765,-3.993439 -4.28368,-7.491933 l -4.28368,-6.360899 -1.44864,5.472712 c -0.79675,3.009991 -2.48951,9.269586 -3.76169,13.910211 L 135.15927,50 l 2.82433,0 c 1.88785,0 4.5555,-2.128144 8.04536,-6.418279 z"
                id="path3440"
                inkscape:connector-curvature="0"/>
        <path
                style="fill-opacity:1"
                d="m 128.70886,147.01935 -11.54238,-15.48064 -20.770737,-0.6369 C 84.971834,130.55151 72.25,130.1589 68.125,130.02934 64,129.89977 54.453502,129.4183 46.910562,128.95939 L 33.196124,128.125 24.102977,111.875 c -5.001231,-8.9375 -9.095358,-16.893267 -9.098062,-17.679484 -0.0027,-0.786215 18.892979,-11.41739 41.990404,-23.624832 l 41.995318,-22.195349 15.938163,0.762367 15.93816,0.762369 3.38741,-12.762536 c 1.86309,-7.019394 3.9397,-14.87191 4.6147,-17.450035 C 139.54409,17.109375 140.8359,15 141.73979,15 c 0.90387,0 4.28451,3.97183 7.51251,8.826288 l 5.86907,8.826287 8.321,-10.076287 C 168.01893,17.03433 172.55906,12.5 173.53156,12.5 c 1.77893,0 1.6437,9.936582 -0.51883,38.125 l -0.67128,8.75 26.36954,22.454376 c 14.50323,12.349908 26.21078,23.175634 26.01677,24.057164 -0.39925,1.81402 -80.75343,56.61346 -83.01414,56.61346 -0.80431,0 -6.65646,-6.96629 -13.00476,-15.48065 z m 15.53104,-16.47934 c 0.92579,-13.70325 1.48536,-25.13957 1.24349,-25.41403 -0.94429,-1.07153 -24.26371,22.99203 -23.7013,24.45763 1.05124,2.73949 20.07927,27.63709 20.43373,26.73693 0.18747,-0.47604 1.09831,-12.07728 2.02408,-25.78053 z m 49.8226,-8.01806 c 13.57812,-9.16818 24.6515,-17.00186 24.6075,-17.40818 -0.044,-0.40632 -10.59088,-9.687769 -23.4375,-20.625435 l -23.3575,-19.886664 -1.25,8.304034 c -1.22271,8.122784 -1.46004,8.51592 -10.87278,18.011665 l -9.62276,9.70763 -1.31602,21.25 c -0.72383,11.6875 -1.62418,23.98299 -2.0008,27.32331 l -0.68478,6.07331 11.62356,-8.04012 c 6.39297,-4.42208 22.73296,-15.54138 36.31108,-24.70955 z m -73.51079,0.0531 4.80909,-4.92495 -15.2835,3.93492 c -16.482005,4.2435 -17.098796,5.67059 -2.51849,5.82711 7.92611,0.0851 8.33526,-0.0673 12.9929,-4.83708 z m -17.61295,-3.45218 27.68624,-7.12714 7.59174,-6.73992 7.59174,-6.739932 -2.85776,-21.445439 c -1.57176,-11.794991 -2.87866,-21.791896 -2.90423,-22.215343 -0.0255,-0.423447 -8.78859,-1.17632 -19.47338,-1.673048 L 101.14622,52.278902 73.385609,66.943972 C 23.753872,93.162881 27.53384,90.764328 29.140062,95.019698 c 1.019451,2.700832 1.019278,5.068322 -6.46e-4,8.889482 -1.300467,4.87221 -1.108531,5.72059 2.974925,13.14953 L 36.479424,125 l 7.388541,0 c 7.101193,0 7.570717,-0.20412 12.072789,-5.2485 2.576335,-2.88668 13.862864,-15.12105 25.081175,-27.187503 L 101.41886,70.625 94.459429,70.25012 C 85.72668,69.779718 85.211191,67.329496 93.044331,63.523864 l 5.544331,-2.693644 4.455668,3.398504 c 2.45062,1.869177 4.44868,4.073002 4.44014,4.89739 -0.009,0.824387 -11.256125,13.592636 -24.994619,28.373886 -13.738492,14.78125 -24.981502,27.29688 -24.984465,27.8125 -0.003,0.51563 3.988929,0.9375 8.87087,0.9375 6.726641,0 15.581203,-1.72602 36.562504,-7.12713 z M 26.230859,99.301412 c 0.03436,-2.376176 -3.31712,-5.954659 -4.748438,-5.070056 -0.991113,0.612541 -0.796497,2.122224 0.670027,5.197558 1.921931,4.030326 4.019231,3.964766 4.078411,-0.127502 z M 168.46345,49.679911 c 1.69576,-21.286755 1.8863,-28.04997 0.75712,-26.875 -0.8299,0.863549 -6.90554,8.038839 -13.50146,15.945089 -8.45897,10.139435 -11.83632,15.11162 -11.46231,16.875 0.29164,1.375 1.54346,10.8111 2.78184,20.96911 l 2.25158,18.46911 8.4536,-8.46911 8.4536,-8.46911 2.26603,-28.445089 z m -22.43449,-6.09819 c 2.87158,-3.530052 5.22104,-6.927242 5.22104,-7.549312 0,-0.622069 -1.92765,-3.993439 -4.28368,-7.491933 l -4.28368,-6.360899 -1.44864,5.472712 c -0.79675,3.009991 -2.48951,9.269586 -3.76169,13.910211 L 135.15927,50 l 2.82433,0 c 1.88785,0 4.5555,-2.128144 8.04536,-6.418279 z"
                id="path3438"
                inkscape:connector-curvature="0"/>
        <path
                style="fill-opacity:1"
                d="m 128.70886,147.01935 -11.54238,-15.48064 -20.770737,-0.6369 C 84.971834,130.55151 72.25,130.1589 68.125,130.02934 64,129.89977 54.453502,129.4183 46.910562,128.95939 L 33.196124,128.125 24.102977,111.875 c -5.001231,-8.9375 -9.095358,-16.893267 -9.098062,-17.679484 -0.0027,-0.786215 18.892979,-11.41739 41.990404,-23.624832 l 41.995318,-22.195349 15.938163,0.762367 15.93816,0.762369 3.38741,-12.762536 c 1.86309,-7.019394 3.9397,-14.87191 4.6147,-17.450035 C 139.54409,17.109375 140.8359,15 141.73979,15 c 0.90387,0 4.28451,3.97183 7.51251,8.826288 l 5.86907,8.826287 8.321,-10.076287 C 168.01893,17.03433 172.55906,12.5 173.53156,12.5 c 1.77893,0 1.6437,9.936582 -0.51883,38.125 l -0.67128,8.75 26.36954,22.454376 c 14.50323,12.349908 26.21078,23.175634 26.01677,24.057164 -0.39925,1.81402 -80.75343,56.61346 -83.01414,56.61346 -0.80431,0 -6.65646,-6.96629 -13.00476,-15.48065 z m 15.53104,-16.47934 c 0.92579,-13.70325 1.48536,-25.13957 1.24349,-25.41403 -0.94429,-1.07153 -24.26371,22.99203 -23.7013,24.45763 1.05124,2.73949 20.07927,27.63709 20.43373,26.73693 0.18747,-0.47604 1.09831,-12.07728 2.02408,-25.78053 z m 49.8226,-8.01806 c 13.57812,-9.16818 24.6515,-17.00186 24.6075,-17.40818 -0.044,-0.40632 -10.59088,-9.687769 -23.4375,-20.625435 l -23.3575,-19.886664 -1.25,8.304034 c -1.22271,8.122784 -1.46004,8.51592 -10.87278,18.011665 l -9.62276,9.70763 -1.31602,21.25 c -0.72383,11.6875 -1.62418,23.98299 -2.0008,27.32331 l -0.68478,6.07331 11.62356,-8.04012 c 6.39297,-4.42208 22.73296,-15.54138 36.31108,-24.70955 z m -73.51079,0.0531 4.80909,-4.92495 -15.2835,3.93492 c -16.482005,4.2435 -17.098796,5.67059 -2.51849,5.82711 7.92611,0.0851 8.33526,-0.0673 12.9929,-4.83708 z m -17.61295,-3.45218 27.68624,-7.12714 7.59174,-6.73992 7.59174,-6.739932 -2.85776,-21.445439 c -1.57176,-11.794991 -2.87866,-21.791896 -2.90423,-22.215343 -0.0255,-0.423447 -8.78859,-1.17632 -19.47338,-1.673048 L 101.14622,52.278902 73.385609,66.943972 C 23.753872,93.162881 27.53384,90.764328 29.140062,95.019698 c 1.019451,2.700832 1.019278,5.068322 -6.46e-4,8.889482 -1.300467,4.87221 -1.108531,5.72059 2.974925,13.14953 L 36.479424,125 l 7.388541,0 c 7.101193,0 7.570717,-0.20412 12.072789,-5.2485 2.576335,-2.88668 13.862864,-15.12105 25.081175,-27.187503 L 101.41886,70.625 94.459429,70.25012 C 85.72668,69.779718 85.211191,67.329496 93.044331,63.523864 l 5.544331,-2.693644 4.455668,3.398504 c 2.45062,1.869177 4.44868,4.073002 4.44014,4.89739 -0.009,0.824387 -11.256125,13.592636 -24.994619,28.373886 -13.738492,14.78125 -24.981502,27.29688 -24.984465,27.8125 -0.003,0.51563 3.988929,0.9375 8.87087,0.9375 6.726641,0 15.581203,-1.72602 36.562504,-7.12713 z M 26.230859,99.301412 c 0.03436,-2.376176 -3.31712,-5.954659 -4.748438,-5.070056 -0.991113,0.612541 -0.796497,2.122224 0.670027,5.197558 1.921931,4.030326 4.019231,3.964766 4.078411,-0.127502 z M 168.46345,49.679911 c 1.69576,-21.286755 1.8863,-28.04997 0.75712,-26.875 -0.8299,0.863549 -6.90554,8.038839 -13.50146,15.945089 -8.45897,10.139435 -11.83632,15.11162 -11.46231,16.875 0.29164,1.375 1.54346,10.8111 2.78184,20.96911 l 2.25158,18.46911 8.4536,-8.46911 8.4536,-8.46911 2.26603,-28.445089 z m -22.43449,-6.09819 c 2.87158,-3.530052 5.22104,-6.927242 5.22104,-7.549312 0,-0.622069 -1.92765,-3.993439 -4.28368,-7.491933 l -4.28368,-6.360899 -1.44864,5.472712 c -0.79675,3.009991 -2.48951,9.269586 -3.76169,13.910211 L 135.15927,50 l 2.82433,0 c 1.88785,0 4.5555,-2.128144 8.04536,-6.418279 z"
                id="path3436"
                inkscape:connector-curvature="0"/>
        <path
                style="fill-opacity:1"
                d="m 128.70886,147.01935 -11.54238,-15.48064 -20.770737,-0.6369 C 84.971834,130.55151 72.25,130.1589 68.125,130.02934 64,129.89977 54.453502,129.4183 46.910562,128.95939 L 33.196124,128.125 24.102977,111.875 c -5.001231,-8.9375 -9.095358,-16.893267 -9.098062,-17.679484 -0.0027,-0.786215 18.892979,-11.41739 41.990404,-23.624832 l 41.995318,-22.195349 15.938163,0.762367 15.93816,0.762369 3.38741,-12.762536 c 1.86309,-7.019394 3.9397,-14.87191 4.6147,-17.450035 C 139.54409,17.109375 140.8359,15 141.73979,15 c 0.90387,0 4.28451,3.97183 7.51251,8.826288 l 5.86907,8.826287 8.321,-10.076287 C 168.01893,17.03433 172.55906,12.5 173.53156,12.5 c 1.77893,0 1.6437,9.936582 -0.51883,38.125 l -0.67128,8.75 26.36954,22.454376 c 14.50323,12.349908 26.21078,23.175634 26.01677,24.057164 -0.39925,1.81402 -80.75343,56.61346 -83.01414,56.61346 -0.80431,0 -6.65646,-6.96629 -13.00476,-15.48065 z m 15.53104,-16.47934 c 0.92579,-13.70325 1.48536,-25.13957 1.24349,-25.41403 -0.94429,-1.07153 -24.26371,22.99203 -23.7013,24.45763 1.05124,2.73949 20.07927,27.63709 20.43373,26.73693 0.18747,-0.47604 1.09831,-12.07728 2.02408,-25.78053 z m 49.8226,-8.01806 c 13.57812,-9.16818 24.6515,-17.00186 24.6075,-17.40818 -0.044,-0.40632 -10.59088,-9.687769 -23.4375,-20.625435 l -23.3575,-19.886664 -1.25,8.304034 c -1.22271,8.122784 -1.46004,8.51592 -10.87278,18.011665 l -9.62276,9.70763 -1.31602,21.25 c -0.72383,11.6875 -1.62418,23.98299 -2.0008,27.32331 l -0.68478,6.07331 11.62356,-8.04012 c 6.39297,-4.42208 22.73296,-15.54138 36.31108,-24.70955 z m -73.51079,0.0531 4.80909,-4.92495 -15.2835,3.93492 c -16.482005,4.2435 -17.098796,5.67059 -2.51849,5.82711 7.92611,0.0851 8.33526,-0.0673 12.9929,-4.83708 z m -17.61295,-3.45218 27.68624,-7.12714 7.59174,-6.73992 7.59174,-6.739932 -2.85776,-21.445439 c -1.57176,-11.794991 -2.87866,-21.791896 -2.90423,-22.215343 -0.0255,-0.423447 -8.78859,-1.17632 -19.47338,-1.673048 L 101.14622,52.278902 73.385609,66.943972 C 23.753872,93.162881 27.53384,90.764328 29.140062,95.019698 c 1.019451,2.700832 1.019278,5.068322 -6.46e-4,8.889482 -1.300467,4.87221 -1.108531,5.72059 2.974925,13.14953 L 36.479424,125 l 7.388541,0 c 7.101193,0 7.570717,-0.20412 12.072789,-5.2485 2.576335,-2.88668 13.862864,-15.12105 25.081175,-27.187503 L 101.41886,70.625 94.459429,70.25012 C 85.72668,69.779718 85.211191,67.329496 93.044331,63.523864 l 5.544331,-2.693644 4.455668,3.398504 c 2.45062,1.869177 4.44868,4.073002 4.44014,4.89739 -0.009,0.824387 -11.256125,13.592636 -24.994619,28.373886 -13.738492,14.78125 -24.981502,27.29688 -24.984465,27.8125 -0.003,0.51563 3.988929,0.9375 8.87087,0.9375 6.726641,0 15.581203,-1.72602 36.562504,-7.12713 z M 26.230859,99.301412 c 0.03436,-2.376176 -3.31712,-5.954659 -4.748438,-5.070056 -0.991113,0.612541 -0.796497,2.122224 0.670027,5.197558 1.921931,4.030326 4.019231,3.964766 4.078411,-0.127502 z M 168.46345,49.679911 c 1.69576,-21.286755 1.8863,-28.04997 0.75712,-26.875 -0.8299,0.863549 -6.90554,8.038839 -13.50146,15.945089 -8.45897,10.139435 -11.83632,15.11162 -11.46231,16.875 0.29164,1.375 1.54346,10.8111 2.78184,20.96911 l 2.25158,18.46911 8.4536,-8.46911 8.4536,-8.46911 2.26603,-28.445089 z m -22.43449,-6.09819 c 2.87158,-3.530052 5.22104,-6.927242 5.22104,-7.549312 0,-0.622069 -1.92765,-3.993439 -4.28368,-7.491933 l -4.28368,-6.360899 -1.44864,5.472712 c -0.79675,3.009991 -2.48951,9.269586 -3.76169,13.910211 L 135.15927,50 l 2.82433,0 c 1.88785,0 4.5555,-2.128144 8.04536,-6.418279 z"
                id="path3434"
                inkscape:connector-curvature="0"/>
    </g>
</svg>
